<svg width="24" height="24" xmlns="http://www.w3.org/2000/svg">

 <g>
  <title>background</title>
  <rect fill="none" id="canvas_background" height="402" width="582" y="-1" x="-1"/>
 </g>
 <g>
  <title>Layer 1</title>
  <path fill="#ffffff" id="svg_2" d="m13.839,17.525c-0.006,0.002 -0.559,0.186 -1.039,0.186c-0.265,0 -0.372,-0.055 -0.406,-0.079c-0.168,-0.117 -0.48,-0.336 0.054,-1.4l1,-1.994c0.593,-1.184 0.681,-2.329 0.245,-3.225c-0.356,-0.733 -1.039,-1.236 -1.92,-1.416c-0.317,-0.065 -0.639,-0.097 -0.958,-0.097c-1.849,0 -3.094,1.08 -3.146,1.126c-0.179,0.158 -0.221,0.42 -0.102,0.626c0.12,0.206 0.367,0.3 0.595,0.222c0.005,-0.002 0.559,-0.187 1.039,-0.187c0.263,0 0.369,0.055 0.402,0.078c0.169,0.118 0.482,0.34 -0.051,1.402l-1,1.995c-0.594,1.185 -0.681,2.33 -0.245,3.225c0.356,0.733 1.038,1.236 1.921,1.416c0.314,0.063 0.636,0.097 0.954,0.097c1.85,0 3.096,-1.08 3.148,-1.126c0.179,-0.157 0.221,-0.42 0.102,-0.626c-0.12,-0.205 -0.369,-0.297 -0.593,-0.223z"/>
  <circle fill="#ffffff" id="svg_3" r="2.5" cy="6.001" cx="13"/>
 </g>
</svg>